<svg xmlns="http://www.w3.org/2000/svg" viewBox="0 0 720 501" width="720" height="501" role="img" aria-label="콘텐츠 섹션 목록 페이지의 섹션 구성과 슬롯 자리">
  <title>콘텐츠 섹션 목록 — 슬롯 배치</title>
  <rect x="0" y="0" width="720" height="501" rx="0" fill="#16191E"/>
  <text x="8" y="491" fill="#4E5867" font-family="ui-sans-serif, -apple-system, 'Segoe UI', Roboto, sans-serif" font-size="10">PC · 모바일 섹션 순서 동일</text>
  <text x="712" y="491" fill="#4E5867" font-family="ui-sans-serif, -apple-system, 'Segoe UI', Roboto, sans-serif" font-size="10" text-anchor="end">1440 × 표시 구간 882px · 50% 축소</text>
  <rect x="0" y="0" width="720" height="36" rx="0" fill="#22272F"/>
  <circle cx="224" cy="18" r="8" fill="#39414C"/>
  <rect x="298" y="15" width="26" height="6" rx="3" fill="#39414C"/>
  <rect x="334" y="15" width="22" height="6" rx="3" fill="#39414C"/>
  <rect x="366" y="15" width="18" height="6" rx="3" fill="#39414C"/>
  <rect x="394" y="15" width="42" height="6" rx="3" fill="#39414C"/>
  <rect x="446" y="15" width="24" height="6" rx="3" fill="#39414C"/>
  <rect x="480" y="15" width="36" height="6" rx="3" fill="#5A6472"/>
  <circle cx="506" cy="18" r="6" fill="#39414C"/>
  <circle cx="530" cy="18" r="6" fill="#39414C"/>
  <circle cx="554" cy="18" r="6" fill="#39414C"/>
  <circle cx="578" cy="18" r="6" fill="#39414C"/>
  <circle cx="602" cy="18" r="6" fill="#39414C"/>
  <rect x="104" y="60" width="508" height="55" rx="4" fill="#1E2536" stroke="#F0A030" stroke-width="1.6"/>
  <text x="116" y="80" fill="#F0A030" font-family="ui-sans-serif, -apple-system, 'Segoe UI', Roboto, sans-serif" font-size="8" font-weight="700" letter-spacing="1.1">▾ V2 SLOT</text>
  <text x="116" y="100" fill="#EDF1F6" font-family="ui-monospace, SFMono-Regular, Menlo, Consolas, monospace" font-size="12.5">user.contents-section.list:before</text>
  <text x="600" y="100" fill="#7FB3D5" font-family="ui-monospace, SFMono-Regular, Menlo, Consolas, monospace" font-size="10.5" text-anchor="end">section: Section</text>
  <rect x="104" y="152" width="98" height="12" rx="3" fill="#5A6472"/>
  <text x="712" y="158" fill="#4E5867" font-family="ui-sans-serif, -apple-system, 'Segoe UI', Roboto, sans-serif" font-size="9" text-anchor="end">섹션 제목</text>
  <rect x="104" y="173" width="32" height="7" rx="3" fill="#39414C"/>
  <rect x="104" y="196" width="161.3" height="91.5" rx="4" fill="#2A3038"/>
  <rect x="277.3" y="196" width="161.3" height="91.5" rx="4" fill="#2A3038"/>
  <rect x="450.7" y="196" width="161.3" height="91.5" rx="4" fill="#2A3038"/>
  <rect x="104" y="296.5" width="52" height="6" rx="3" fill="#39414C"/>
  <rect x="277.3" y="296.5" width="40" height="6" rx="3" fill="#39414C"/>
  <rect x="450.7" y="296.5" width="66" height="6" rx="3" fill="#39414C"/>
  <rect x="104" y="307.5" width="36" height="5" rx="2.5" fill="#39414C"/>
  <rect x="277.3" y="307.5" width="36" height="5" rx="2.5" fill="#39414C"/>
  <rect x="450.7" y="307.5" width="36" height="5" rx="2.5" fill="#39414C"/>
  <rect x="104" y="324.5" width="161.3" height="91.5" rx="4" fill="#2A3038"/>
  <rect x="277.3" y="324.5" width="161.3" height="91.5" rx="4" fill="#2A3038"/>
  <rect x="450.7" y="324.5" width="161.3" height="91.5" rx="4" fill="#2A3038"/>
  <rect x="104" y="425" width="52" height="6" rx="3" fill="#39414C"/>
  <rect x="277.3" y="425" width="40" height="6" rx="3" fill="#39414C"/>
  <rect x="450.7" y="425" width="66" height="6" rx="3" fill="#39414C"/>
  <rect x="104" y="436" width="36" height="5" rx="2.5" fill="#39414C"/>
  <rect x="277.3" y="436" width="36" height="5" rx="2.5" fill="#39414C"/>
  <rect x="450.7" y="436" width="36" height="5" rx="2.5" fill="#39414C"/>
  <line x1="0" y1="458" x2="720" y2="458" stroke="#4E5867" stroke-width="1" stroke-dasharray="6 5"/>
  <text x="360" y="471" fill="#4E5867" font-family="ui-sans-serif, -apple-system, 'Segoe UI', Roboto, sans-serif" font-size="9" text-anchor="middle">페이지 이어짐</text>
</svg>
