<svg xmlns="http://www.w3.org/2000/svg" viewBox="0 0 720 510" width="720" height="510" role="img" aria-label="POP 홈 페이지의 섹션 구성과 슬롯 자리">
  <title>POP 홈 — 슬롯 배치</title>
  <rect x="0" y="0" width="720" height="510" rx="0" fill="#16191E"/>
  <text x="8" y="500" fill="#4E5867" font-family="ui-sans-serif, -apple-system, 'Segoe UI', Roboto, sans-serif" font-size="10">PC · 모바일 섹션 순서 동일</text>
  <text x="712" y="500" fill="#4E5867" font-family="ui-sans-serif, -apple-system, 'Segoe UI', Roboto, sans-serif" font-size="10" text-anchor="end">1440 × 표시 구간 828px · 50% 축소</text>
  <line x1="0" y1="13" x2="720" y2="13" stroke="#4E5867" stroke-width="1" stroke-dasharray="6 5"/>
  <text x="360" y="26" fill="#4E5867" font-family="ui-sans-serif, -apple-system, 'Segoe UI', Roboto, sans-serif" font-size="9" text-anchor="middle">페이지 이어짐</text>
  <rect x="198" y="36" width="320" height="145" rx="4" fill="#2A3038"/>
  <text x="712" y="108.5" fill="#4E5867" font-family="ui-sans-serif, -apple-system, 'Segoe UI', Roboto, sans-serif" font-size="9" text-anchor="end">구독 히어로</text>
  <rect x="183" y="196" width="351" height="57.5" rx="4" fill="#1E2536" stroke="#F0A030" stroke-width="1.6"/>
  <text x="195" y="216" fill="#F0A030" font-family="ui-sans-serif, -apple-system, 'Segoe UI', Roboto, sans-serif" font-size="8" font-weight="700" letter-spacing="1.1">▾ V2 SLOT</text>
  <text x="195" y="236" fill="#EDF1F6" font-family="ui-monospace, SFMono-Regular, Menlo, Consolas, monospace" font-size="12.5">user.pop-home.list:before</text>
  <text x="522" y="236" fill="#616D7D" font-family="ui-sans-serif, -apple-system, 'Segoe UI', Roboto, sans-serif" font-size="10" text-anchor="end">context 없음</text>
  <rect x="198" y="271" width="66" height="7" rx="3" fill="#5A6472"/>
  <circle cx="208" cy="301" r="9" fill="#39414C"/>
  <rect x="224" y="298" width="60" height="6" rx="3" fill="#5A6472"/>
  <rect x="472" y="294" width="46" height="14" rx="4" fill="#2A3038"/>
  <circle cx="208" cy="333" r="9" fill="#39414C"/>
  <rect x="224" y="330" width="80.5" height="6" rx="3" fill="#5A6472"/>
  <rect x="472" y="326" width="46" height="14" rx="4" fill="#2A3038"/>
  <circle cx="208" cy="365" r="9" fill="#39414C"/>
  <rect x="224" y="362" width="65" height="6" rx="3" fill="#5A6472"/>
  <rect x="472" y="358" width="46" height="14" rx="4" fill="#2A3038"/>
  <circle cx="208" cy="397" r="9" fill="#39414C"/>
  <rect x="224" y="394" width="85.5" height="6" rx="3" fill="#5A6472"/>
  <rect x="472" y="390" width="46" height="14" rx="4" fill="#2A3038"/>
  <circle cx="208" cy="429" r="9" fill="#39414C"/>
  <rect x="224" y="426" width="70" height="6" rx="3" fill="#5A6472"/>
  <rect x="472" y="422" width="46" height="14" rx="4" fill="#2A3038"/>
  <text x="712" y="300" fill="#4E5867" font-family="ui-sans-serif, -apple-system, 'Segoe UI', Roboto, sans-serif" font-size="9" text-anchor="end">구독 목록</text>
  <line x1="0" y1="467" x2="720" y2="467" stroke="#4E5867" stroke-width="1" stroke-dasharray="6 5"/>
  <text x="360" y="480" fill="#4E5867" font-family="ui-sans-serif, -apple-system, 'Segoe UI', Roboto, sans-serif" font-size="9" text-anchor="middle">페이지 이어짐</text>
</svg>
